<?xml version="1.0" standalone="no"?>
<svg viewBox="0 0 200 200" xmlns="http://www.w3.org/2000/svg">
  <path fill="#FF0066" d="M46,-80.6C59.5,-71.9,70.3,-59.4,78.7,-45.3C87.1,-31.2,93,-15.6,92.6,-0.2C92.2,15.1,85.5,30.3,77.2,44.5C68.9,58.7,59.1,72,45.9,79.7C32.8,87.4,16.4,89.6,0.3,89.1C-15.9,88.6,-31.7,85.5,-45.6,78.3C-59.6,71,-71.6,59.6,-78.6,45.9C-85.5,32.2,-87.4,16.1,-86.4,0.6C-85.4,-14.9,-81.5,-29.9,-74.9,-44.1C-68.2,-58.3,-58.7,-71.8,-45.8,-80.8C-32.8,-89.8,-16.4,-94.3,-0.1,-94.2C16.3,-94,32.5,-89.2,46,-80.6Z" transform="translate(100 100)" />
</svg>
